<?xml version="1.0" encoding="UTF-8" standalone="no"?>
<!DOCTYPE svg PUBLIC "-//W3C//DTD SVG 1.1//EN" "http://www.w3.org/Graphics/SVG/1.1/DTD/svg11.dtd">
<svg width="100%" height="100%" viewBox="0 0 500 500" version="1.1" xmlns="http://www.w3.org/2000/svg" xmlns:xlink="http://www.w3.org/1999/xlink" xml:space="preserve" xmlns:serif="http://www.serif.com/" style="fill-rule:evenodd;clip-rule:evenodd;stroke-linejoin:round;stroke-miterlimit:2;">
    <g transform="matrix(0.5,0,0,0.5,0,0)">
        <g id="Bottom-Pincer" serif:id="Bottom Pincer" transform="matrix(0.853659,0,0,0.853659,62.926829,62.926829)">
            <path d="M787.401,227.02L797.555,217.903C874.292,292.429 922,396.687 922,512C922,637.882 865.147,750.589 775.738,825.824C704.426,885.832 612.403,922 512,922C402.706,922 303.342,879.142 229.813,809.33C221.32,801.267 215.179,791.802 217.1,782.892C217.774,779.765 219.44,776.707 222.346,773.801C231.677,764.471 245.965,770.565 258.397,774.99C307.803,792.574 365.241,793.86 415.765,775.471C518.057,738.24 572.727,630.047 537.774,534.016C535.825,528.66 533.637,523.454 531.227,518.404C581.612,553.797 650.166,564.365 715.045,540.751C817.337,503.52 872.007,395.327 837.054,299.296C826.591,270.548 809.274,246.128 787.401,227.02Z" style="fill-opacity:0.4;"/>
        </g>
        <g id="Top-Pincer" serif:id="Top Pincer" transform="matrix(0.209242,0,-0,0.209242,52.849388,52.640146)">
            <path d="M464.297,2138C464.297,1214.81 1213.81,465.297 2137,465.297C2275.066,465.297 2409.248,482.061 2537.619,513.663C2888.752,600.102 3196.41,797.554 3421.176,1066.6C3493.619,1205.204 3524.139,1358.798 3500.87,1514.404C3431.616,1977.514 2911.969,2284.2 2341.165,2198.842C2300.05,2192.693 2259.784,2184.677 2220.484,2174.922C2103.739,1919.481 1848.454,1759.519 1566.521,1742.974C1455.418,1736.455 1340.177,1752.207 1227.646,1793.165C810.322,1945.058 676.026,2301.4 676.026,2301.4C676.026,2301.4 630.463,2401.838 548.945,2372.799C474.341,2346.223 464.297,2234.114 464.297,2138Z"/>
        </g>
    </g>
</svg>
