<?xml version="1.0" encoding="UTF-8"?>
<!-- Generated by Pixelmator Pro 3.7.1 -->
<svg width="400" height="400" viewBox="0 0 400 400" xmlns="http://www.w3.org/2000/svg">
    <path id="Path" fill="#000000" stroke="none" visibility="hidden" d="M 0 0 L 400 0 L 400 400 L 0 400 Z"/>
    <g id="Group">
        <path id="path1" fill="#ffffff" stroke="none" d="M 184 256 L 177.600006 284 L 222.399994 284 L 216 256 Z"/>
        <path id="path2" fill="#ffffff" stroke="none" d="M 264 290 C 264 298.836548 235.346222 306 200 306 C 164.653778 306 136 298.836548 136 290 C 136 281.163452 164.653778 274 200 274 C 235.346222 274 264 281.163452 264 290 Z"/>
        <path id="path3" fill="#ffffff" stroke="none" d="M 132 128 L 268 128 C 279.045685 128 288 136.954285 288 148 L 288 220 C 288 231.0457 279.045685 240 268 240 L 132 240 C 120.954308 240 112 231.0457 112 220 L 112 148 C 112 136.954285 120.954308 128 132 128 Z M 151.199997 168 C 151.199997 177.278381 158.721619 184.800003 168 184.800003 C 177.278381 184.800003 184.800003 177.278381 184.800003 168 C 184.800003 158.721619 177.278381 151.199997 168 151.199997 C 158.721619 151.199997 151.199997 158.721619 151.199997 168 Z M 232 184.800003 C 241.278381 184.800003 248.800003 177.278381 248.800003 168 C 248.800003 158.721619 241.278381 151.199997 232 151.199997 C 222.721619 151.199997 215.199997 158.721619 215.199997 168 C 215.199997 177.278381 222.721619 184.800003 232 184.800003 Z"/>
        <path id="path4" fill="#ffffff" stroke="none" d="M 32 136 C 37.333333 173.333333 58.666667 200 96 216 L 96 204 C 82.666667 196 78.666667 180 84 156 C 92 121.333333 86.666667 101.333333 68 96 C 61.416172 94.683228 55.726368 94.504303 50.930595 95.463257 C 56.584698 95.484253 61.416542 98.08075 63.035084 102.527679 C 65.301788 108.755402 60.407887 116.254028 52.10424 119.276306 C 43.978634 122.233795 35.598961 119.808899 33.119347 113.867889 C 31.641125 119.838745 31.268011 127.216125 32 136 Z"/>
        <path id="path5" fill="#ffffff" stroke="none" d="M 368 136 C 362.666656 173.333328 341.333344 200 304 216 L 304 204 C 317.333333 196 321.333333 180 316 156 C 308 121.333344 313.333344 101.333344 332 96 C 338.583832 94.683228 344.273621 94.504303 349.069397 95.463257 C 343.415314 95.484253 338.583466 98.08075 336.964905 102.527679 C 334.698212 108.755402 339.592133 116.254028 347.895752 119.276306 C 356.021362 122.233765 364.401001 119.808899 366.880646 113.86792 C 368.358856 119.838776 368.731995 127.216156 368 136 Z"/>
    </g>
</svg>
